<svg width="167" height="89" viewBox="0 0 167 89" fill="none" xmlns="http://www.w3.org/2000/svg">
<path d="M1 14.7779C1 14.7779 46 -16.2224 55 14.7779C64 45.7782 81.5 -19.7221 107 14.7779C132.5 49.2779 166 14.7779 166 14.7779M1 43.5555C1 43.5555 46 12.5552 55 43.5555C64 74.5558 81.5 9.05551 107 43.5555C132.5 78.0555 166 43.5555 166 43.5555M1 72.5555C1 72.5555 46 41.5552 55 72.5555C64 103.556 81.5 38.0555 107 72.5555C132.5 107.056 166 72.5555 166 72.5555" stroke="#1188EE" stroke-width="2"/>
</svg>
