<svg width="22" height="50" viewBox="0 0 22 50" fill="none" xmlns="http://www.w3.org/2000/svg">
<path fill-rule="evenodd" clip-rule="evenodd" d="M9.63967 0.373744C10.1612 -0.124582 10.8618 -0.124581 11.3834 0.373744C17.8802 6.58136 20.8255 14.0232 21.0111 24.7002C21.0968 29.7986 20.7299 34.4668 19.6133 38.4994C18.4681 42.5345 16.4315 46.2626 13.4332 49.4108C13.0549 49.8049 12.5585 49.9333 12.0976 49.7563C11.1793 49.4037 11.023 47.9477 10.5115 47.0401C9.99974 47.9482 9.84439 49.4034 8.9254 49.7563C8.46452 49.9333 7.96817 49.8049 7.58987 49.4108C4.5915 46.2626 2.55499 42.5345 1.40971 38.4994C0.293102 34.4668 -0.0737632 29.7986 0.0119281 24.7002C0.197553 14.0232 3.1428 6.58136 9.63967 0.373744ZM12.9984 44.8119C14.8746 42.5044 16.0052 39.9864 16.8041 37.0913C17.8092 33.5507 18.0991 29.6405 18.0119 24.7936C17.8672 16.468 16.4108 11.05 11.9984 6.01951V20.7339C13.7236 21.3278 14.4984 23.5914 14.4984 26.0845C14.4984 28.5777 13.7236 30.8413 11.9984 31.4352V43.4742C11.9984 43.4742 12.8001 44.4629 12.9984 44.8119ZM7.99835 44.8119C6.12206 42.5044 5.01787 39.9864 4.21893 37.0913C3.21389 33.5507 2.92391 29.6405 3.01112 24.7936C3.15557 16.4846 4.60442 11.0433 8.99835 6.01951V20.7339C7.27312 21.3278 6.49835 23.5914 6.49835 26.0845C6.49835 28.5777 7.27312 30.8413 8.99835 31.4352V43.4742C8.99835 43.4742 8.18923 44.4757 7.99835 44.8119ZM10.4984 23.4092C9.39378 23.4092 8.49835 24.6069 8.49835 26.0845C8.49835 27.5621 9.39378 28.7599 10.4984 28.7599C11.6029 28.7599 12.4984 27.5621 12.4984 26.0845C12.4984 24.6069 11.6029 23.4092 10.4984 23.4092Z" fill="white"/>
</svg>
